<mxfile host="drawio-plugin" modified="2021-07-19T13:18:59.166Z" agent="5.0 (Windows NT 6.2; Win64; x64) AppleWebKit/537.36 (KHTML, like Gecko) Chrome/89.0.4389.90 Safari/537.36" etag="P76vCu0K8Mh4ETQZ9Jea" version="14.7.4" type="embed"><diagram id="yUzeiXf0-PZ1s-XsHvnF" name="Page-1"><mxGraphModel dx="1010" dy="489" grid="1" gridSize="10" guides="1" tooltips="1" connect="1" arrows="1" fold="1" page="1" pageScale="1" pageWidth="1600" pageHeight="1100" math="0" shadow="0"><root><mxCell id="0"/><mxCell id="1" parent="0"/><mxCell id="WEGL4rApuy6SPZoM_rHp-1" value="User" style="swimlane;fontStyle=1;align=center;verticalAlign=top;childLayout=stackLayout;horizontal=1;startSize=26;horizontalStack=0;resizeParent=1;resizeParentMax=0;resizeLast=0;collapsible=1;marginBottom=0;labelBackgroundColor=none;strokeColor=#6c8ebf;fillColor=#808894;" parent="1" vertex="1"><mxGeometry x="123" y="346" width="160" height="138" as="geometry"/></mxCell><mxCell id="WEGL4rApuy6SPZoM_rHp-2" value="id: int(autoincrment)" style="text;strokeColor=none;fillColor=none;align=left;verticalAlign=top;spacingLeft=4;spacingRight=4;overflow=hidden;rotatable=0;points=[[0,0.5],[1,0.5]];portConstraint=eastwest;" parent="WEGL4rApuy6SPZoM_rHp-1" vertex="1"><mxGeometry y="26" width="160" height="26" as="geometry"/></mxCell><mxCell id="WEGL4rApuy6SPZoM_rHp-3" value="" style="line;strokeWidth=1;fillColor=none;align=left;verticalAlign=middle;spacingTop=-1;spacingLeft=3;spacingRight=3;rotatable=0;labelPosition=right;points=[];portConstraint=eastwest;" parent="WEGL4rApuy6SPZoM_rHp-1" vertex="1"><mxGeometry y="52" width="160" height="8" as="geometry"/></mxCell><mxCell id="WEGL4rApuy6SPZoM_rHp-4" value="country: enum" style="text;strokeColor=none;fillColor=none;align=left;verticalAlign=top;spacingLeft=4;spacingRight=4;overflow=hidden;rotatable=0;points=[[0,0.5],[1,0.5]];portConstraint=eastwest;" parent="WEGL4rApuy6SPZoM_rHp-1" vertex="1"><mxGeometry y="60" width="160" height="26" as="geometry"/></mxCell><mxCell id="WEGL4rApuy6SPZoM_rHp-5" value="role: enum" style="text;strokeColor=none;fillColor=none;align=left;verticalAlign=top;spacingLeft=4;spacingRight=4;overflow=hidden;rotatable=0;points=[[0,0.5],[1,0.5]];portConstraint=eastwest;" parent="WEGL4rApuy6SPZoM_rHp-1" vertex="1"><mxGeometry y="86" width="160" height="26" as="geometry"/></mxCell><mxCell id="WEGL4rApuy6SPZoM_rHp-6" value="name: string" style="text;strokeColor=none;fillColor=none;align=left;verticalAlign=top;spacingLeft=4;spacingRight=4;overflow=hidden;rotatable=0;points=[[0,0.5],[1,0.5]];portConstraint=eastwest;" parent="WEGL4rApuy6SPZoM_rHp-1" vertex="1"><mxGeometry y="112" width="160" height="26" as="geometry"/></mxCell><mxCell id="WEGL4rApuy6SPZoM_rHp-7" value="Community" style="swimlane;fontStyle=1;align=center;verticalAlign=top;childLayout=stackLayout;horizontal=1;startSize=26;horizontalStack=0;resizeParent=1;resizeParentMax=0;resizeLast=0;collapsible=1;marginBottom=0;strokeColor=#b85450;fillColor=#A18584;" parent="1" vertex="1"><mxGeometry x="646" y="256" width="160" height="112" as="geometry"/></mxCell><mxCell id="WEGL4rApuy6SPZoM_rHp-8" value="id: int(autoincrment)" style="text;strokeColor=none;fillColor=none;align=left;verticalAlign=top;spacingLeft=4;spacingRight=4;overflow=hidden;rotatable=0;points=[[0,0.5],[1,0.5]];portConstraint=eastwest;" parent="WEGL4rApuy6SPZoM_rHp-7" vertex="1"><mxGeometry y="26" width="160" height="26" as="geometry"/></mxCell><mxCell id="WEGL4rApuy6SPZoM_rHp-9" value="" style="line;strokeWidth=1;fillColor=none;align=left;verticalAlign=middle;spacingTop=-1;spacingLeft=3;spacingRight=3;rotatable=0;labelPosition=right;points=[];portConstraint=eastwest;" parent="WEGL4rApuy6SPZoM_rHp-7" vertex="1"><mxGeometry y="52" width="160" height="8" as="geometry"/></mxCell><mxCell id="WEGL4rApuy6SPZoM_rHp-10" value="title: string" style="text;strokeColor=none;fillColor=none;align=left;verticalAlign=top;spacingLeft=4;spacingRight=4;overflow=hidden;rotatable=0;points=[[0,0.5],[1,0.5]];portConstraint=eastwest;" parent="WEGL4rApuy6SPZoM_rHp-7" vertex="1"><mxGeometry y="60" width="160" height="26" as="geometry"/></mxCell><mxCell id="WEGL4rApuy6SPZoM_rHp-11" value="image: string" style="text;strokeColor=none;fillColor=none;align=left;verticalAlign=top;spacingLeft=4;spacingRight=4;overflow=hidden;rotatable=0;points=[[0,0.5],[1,0.5]];portConstraint=eastwest;" parent="WEGL4rApuy6SPZoM_rHp-7" vertex="1"><mxGeometry y="86" width="160" height="26" as="geometry"/></mxCell><mxCell id="WEGL4rApuy6SPZoM_rHp-12" value="Post" style="swimlane;fontStyle=1;align=center;verticalAlign=top;childLayout=stackLayout;horizontal=1;startSize=26;horizontalStack=0;resizeParent=1;resizeParentMax=0;resizeLast=0;collapsible=1;marginBottom=0;strokeColor=#d79b00;fillColor=#B09F8D;" parent="1" vertex="1"><mxGeometry x="413" y="259" width="160" height="294" as="geometry"/></mxCell><mxCell id="WEGL4rApuy6SPZoM_rHp-13" value="id: int(autoincrment)" style="text;strokeColor=none;fillColor=none;align=left;verticalAlign=top;spacingLeft=4;spacingRight=4;overflow=hidden;rotatable=0;points=[[0,0.5],[1,0.5]];portConstraint=eastwest;" parent="WEGL4rApuy6SPZoM_rHp-12" vertex="1"><mxGeometry y="26" width="160" height="26" as="geometry"/></mxCell><mxCell id="WEGL4rApuy6SPZoM_rHp-14" value="" style="line;strokeWidth=1;fillColor=none;align=left;verticalAlign=middle;spacingTop=-1;spacingLeft=3;spacingRight=3;rotatable=0;labelPosition=right;points=[];portConstraint=eastwest;" parent="WEGL4rApuy6SPZoM_rHp-12" vertex="1"><mxGeometry y="52" width="160" height="8" as="geometry"/></mxCell><mxCell id="WEGL4rApuy6SPZoM_rHp-15" value="title: string" style="text;strokeColor=none;fillColor=none;align=left;verticalAlign=top;spacingLeft=4;spacingRight=4;overflow=hidden;rotatable=0;points=[[0,0.5],[1,0.5]];portConstraint=eastwest;" parent="WEGL4rApuy6SPZoM_rHp-12" vertex="1"><mxGeometry y="60" width="160" height="26" as="geometry"/></mxCell><mxCell id="WEGL4rApuy6SPZoM_rHp-16" value="summary: string" style="text;strokeColor=none;fillColor=none;align=left;verticalAlign=top;spacingLeft=4;spacingRight=4;overflow=hidden;rotatable=0;points=[[0,0.5],[1,0.5]];portConstraint=eastwest;" parent="WEGL4rApuy6SPZoM_rHp-12" vertex="1"><mxGeometry y="86" width="160" height="26" as="geometry"/></mxCell><mxCell id="WEGL4rApuy6SPZoM_rHp-17" value="body: string" style="text;strokeColor=none;fillColor=none;align=left;verticalAlign=top;spacingLeft=4;spacingRight=4;overflow=hidden;rotatable=0;points=[[0,0.5],[1,0.5]];portConstraint=eastwest;" parent="WEGL4rApuy6SPZoM_rHp-12" vertex="1"><mxGeometry y="112" width="160" height="26" as="geometry"/></mxCell><mxCell id="WEGL4rApuy6SPZoM_rHp-18" value="communityId: Ref" style="text;strokeColor=none;fillColor=none;align=left;verticalAlign=top;spacingLeft=4;spacingRight=4;overflow=hidden;rotatable=0;points=[[0,0.5],[1,0.5]];portConstraint=eastwest;" parent="WEGL4rApuy6SPZoM_rHp-12" vertex="1"><mxGeometry y="138" width="160" height="26" as="geometry"/></mxCell><mxCell id="WEGL4rApuy6SPZoM_rHp-19" value="userId: Ref" style="text;strokeColor=none;fillColor=none;align=left;verticalAlign=top;spacingLeft=4;spacingRight=4;overflow=hidden;rotatable=0;points=[[0,0.5],[1,0.5]];portConstraint=eastwest;" parent="WEGL4rApuy6SPZoM_rHp-12" vertex="1"><mxGeometry y="164" width="160" height="26" as="geometry"/></mxCell><mxCell id="WEGL4rApuy6SPZoM_rHp-20" value="status: enum" style="text;strokeColor=none;fillColor=none;align=left;verticalAlign=top;spacingLeft=4;spacingRight=4;overflow=hidden;rotatable=0;points=[[0,0.5],[1,0.5]];portConstraint=eastwest;" parent="WEGL4rApuy6SPZoM_rHp-12" vertex="1"><mxGeometry y="190" width="160" height="26" as="geometry"/></mxCell><mxCell id="WEGL4rApuy6SPZoM_rHp-21" value="reactionCount: int" style="text;strokeColor=none;fillColor=none;align=left;verticalAlign=top;spacingLeft=4;spacingRight=4;overflow=hidden;rotatable=0;points=[[0,0.5],[1,0.5]];portConstraint=eastwest;" parent="WEGL4rApuy6SPZoM_rHp-12" vertex="1"><mxGeometry y="216" width="160" height="26" as="geometry"/></mxCell><mxCell id="WEGL4rApuy6SPZoM_rHp-22" value="length: int" style="text;strokeColor=none;fillColor=none;align=left;verticalAlign=top;spacingLeft=4;spacingRight=4;overflow=hidden;rotatable=0;points=[[0,0.5],[1,0.5]];portConstraint=eastwest;" parent="WEGL4rApuy6SPZoM_rHp-12" vertex="1"><mxGeometry y="242" width="160" height="26" as="geometry"/></mxCell><mxCell id="WEGL4rApuy6SPZoM_rHp-23" value="created: date" style="text;strokeColor=none;fillColor=none;align=left;verticalAlign=top;spacingLeft=4;spacingRight=4;overflow=hidden;rotatable=0;points=[[0,0.5],[1,0.5]];portConstraint=eastwest;" parent="WEGL4rApuy6SPZoM_rHp-12" vertex="1"><mxGeometry y="268" width="160" height="26" as="geometry"/></mxCell><mxCell id="WEGL4rApuy6SPZoM_rHp-24" style="edgeStyle=orthogonalEdgeStyle;rounded=0;orthogonalLoop=1;jettySize=auto;html=1;" parent="1" source="WEGL4rApuy6SPZoM_rHp-18" target="WEGL4rApuy6SPZoM_rHp-8" edge="1"><mxGeometry relative="1" as="geometry"/></mxCell><mxCell id="WEGL4rApuy6SPZoM_rHp-25" style="edgeStyle=orthogonalEdgeStyle;rounded=0;orthogonalLoop=1;jettySize=auto;html=1;entryX=1;entryY=0.5;entryDx=0;entryDy=0;" parent="1" source="WEGL4rApuy6SPZoM_rHp-19" target="WEGL4rApuy6SPZoM_rHp-2" edge="1"><mxGeometry relative="1" as="geometry"><Array as="points"><mxPoint x="335" y="433"/><mxPoint x="335" y="385"/></Array></mxGeometry></mxCell><mxCell id="WEGL4rApuy6SPZoM_rHp-26" value="PostReaction" style="swimlane;fontStyle=1;align=center;verticalAlign=top;childLayout=stackLayout;horizontal=1;startSize=26;horizontalStack=0;resizeParent=1;resizeParentMax=0;resizeLast=0;collapsible=1;marginBottom=0;strokeColor=#82b366;fillColor=#8A9689;" parent="1" vertex="1"><mxGeometry x="112" y="624" width="160" height="138" as="geometry"/></mxCell><mxCell id="WEGL4rApuy6SPZoM_rHp-27" value="id: int(autoincrment)" style="text;strokeColor=none;fillColor=none;align=left;verticalAlign=top;spacingLeft=4;spacingRight=4;overflow=hidden;rotatable=0;points=[[0,0.5],[1,0.5]];portConstraint=eastwest;" parent="WEGL4rApuy6SPZoM_rHp-26" vertex="1"><mxGeometry y="26" width="160" height="26" as="geometry"/></mxCell><mxCell id="WEGL4rApuy6SPZoM_rHp-28" value="" style="line;strokeWidth=1;fillColor=none;align=left;verticalAlign=middle;spacingTop=-1;spacingLeft=3;spacingRight=3;rotatable=0;labelPosition=right;points=[];portConstraint=eastwest;" parent="WEGL4rApuy6SPZoM_rHp-26" vertex="1"><mxGeometry y="52" width="160" height="8" as="geometry"/></mxCell><mxCell id="WEGL4rApuy6SPZoM_rHp-29" value="userId: REF" style="text;strokeColor=none;fillColor=none;align=left;verticalAlign=top;spacingLeft=4;spacingRight=4;overflow=hidden;rotatable=0;points=[[0,0.5],[1,0.5]];portConstraint=eastwest;" parent="WEGL4rApuy6SPZoM_rHp-26" vertex="1"><mxGeometry y="60" width="160" height="26" as="geometry"/></mxCell><mxCell id="WEGL4rApuy6SPZoM_rHp-30" value="postId: REF" style="text;strokeColor=none;fillColor=none;align=left;verticalAlign=top;spacingLeft=4;spacingRight=4;overflow=hidden;rotatable=0;points=[[0,0.5],[1,0.5]];portConstraint=eastwest;" parent="WEGL4rApuy6SPZoM_rHp-26" vertex="1"><mxGeometry y="86" width="160" height="26" as="geometry"/></mxCell><mxCell id="WEGL4rApuy6SPZoM_rHp-31" value="reactionType: int" style="text;strokeColor=none;fillColor=none;align=left;verticalAlign=top;spacingLeft=4;spacingRight=4;overflow=hidden;rotatable=0;points=[[0,0.5],[1,0.5]];portConstraint=eastwest;" parent="WEGL4rApuy6SPZoM_rHp-26" vertex="1"><mxGeometry y="112" width="160" height="26" as="geometry"/></mxCell><mxCell id="WEGL4rApuy6SPZoM_rHp-32" style="edgeStyle=orthogonalEdgeStyle;rounded=0;orthogonalLoop=1;jettySize=auto;html=1;entryX=1;entryY=0.5;entryDx=0;entryDy=0;" parent="1" source="WEGL4rApuy6SPZoM_rHp-29" target="WEGL4rApuy6SPZoM_rHp-2" edge="1"><mxGeometry relative="1" as="geometry"/></mxCell><mxCell id="WEGL4rApuy6SPZoM_rHp-33" value="UserCommunities" style="swimlane;fontStyle=1;align=center;verticalAlign=top;childLayout=stackLayout;horizontal=1;startSize=26;horizontalStack=0;resizeParent=1;resizeParentMax=0;resizeLast=0;collapsible=1;marginBottom=0;fillColor=#bac8d3;strokeColor=#23445d;" parent="1" vertex="1"><mxGeometry x="422" y="105" width="160" height="112" as="geometry"/></mxCell><mxCell id="WEGL4rApuy6SPZoM_rHp-34" value="id: int(autoincrment)" style="text;strokeColor=none;fillColor=none;align=left;verticalAlign=top;spacingLeft=4;spacingRight=4;overflow=hidden;rotatable=0;points=[[0,0.5],[1,0.5]];portConstraint=eastwest;" parent="WEGL4rApuy6SPZoM_rHp-33" vertex="1"><mxGeometry y="26" width="160" height="26" as="geometry"/></mxCell><mxCell id="WEGL4rApuy6SPZoM_rHp-35" value="" style="line;strokeWidth=1;fillColor=none;align=left;verticalAlign=middle;spacingTop=-1;spacingLeft=3;spacingRight=3;rotatable=0;labelPosition=right;points=[];portConstraint=eastwest;" parent="WEGL4rApuy6SPZoM_rHp-33" vertex="1"><mxGeometry y="52" width="160" height="8" as="geometry"/></mxCell><mxCell id="WEGL4rApuy6SPZoM_rHp-36" value="userId: REF" style="text;strokeColor=none;fillColor=none;align=left;verticalAlign=top;spacingLeft=4;spacingRight=4;overflow=hidden;rotatable=0;points=[[0,0.5],[1,0.5]];portConstraint=eastwest;" parent="WEGL4rApuy6SPZoM_rHp-33" vertex="1"><mxGeometry y="60" width="160" height="26" as="geometry"/></mxCell><mxCell id="WEGL4rApuy6SPZoM_rHp-37" value="communityId: REF" style="text;strokeColor=none;fillColor=none;align=left;verticalAlign=top;spacingLeft=4;spacingRight=4;overflow=hidden;rotatable=0;points=[[0,0.5],[1,0.5]];portConstraint=eastwest;" parent="WEGL4rApuy6SPZoM_rHp-33" vertex="1"><mxGeometry y="86" width="160" height="26" as="geometry"/></mxCell><mxCell id="WEGL4rApuy6SPZoM_rHp-38" style="edgeStyle=orthogonalEdgeStyle;rounded=0;orthogonalLoop=1;jettySize=auto;html=1;" parent="1" source="WEGL4rApuy6SPZoM_rHp-36" target="WEGL4rApuy6SPZoM_rHp-2" edge="1"><mxGeometry relative="1" as="geometry"/></mxCell><mxCell id="WEGL4rApuy6SPZoM_rHp-39" style="edgeStyle=orthogonalEdgeStyle;rounded=0;orthogonalLoop=1;jettySize=auto;html=1;entryX=0;entryY=0.5;entryDx=0;entryDy=0;" parent="1" source="WEGL4rApuy6SPZoM_rHp-37" target="WEGL4rApuy6SPZoM_rHp-8" edge="1"><mxGeometry relative="1" as="geometry"/></mxCell><mxCell id="WEGL4rApuy6SPZoM_rHp-40" value="Watchlist" style="swimlane;fontStyle=1;align=center;verticalAlign=top;childLayout=stackLayout;horizontal=1;startSize=26;horizontalStack=0;resizeParent=1;resizeParentMax=0;resizeLast=0;collapsible=1;marginBottom=0;strokeColor=#36393d;fillColor=#8F8F4C;" parent="1" vertex="1"><mxGeometry x="123" y="167" width="160" height="86" as="geometry"/></mxCell><mxCell id="WEGL4rApuy6SPZoM_rHp-41" value="id: int(autoincrment)" style="text;strokeColor=none;fillColor=none;align=left;verticalAlign=top;spacingLeft=4;spacingRight=4;overflow=hidden;rotatable=0;points=[[0,0.5],[1,0.5]];portConstraint=eastwest;" parent="WEGL4rApuy6SPZoM_rHp-40" vertex="1"><mxGeometry y="26" width="160" height="26" as="geometry"/></mxCell><mxCell id="WEGL4rApuy6SPZoM_rHp-42" value="" style="line;strokeWidth=1;fillColor=none;align=left;verticalAlign=middle;spacingTop=-1;spacingLeft=3;spacingRight=3;rotatable=0;labelPosition=right;points=[];portConstraint=eastwest;" parent="WEGL4rApuy6SPZoM_rHp-40" vertex="1"><mxGeometry y="52" width="160" height="8" as="geometry"/></mxCell><mxCell id="WEGL4rApuy6SPZoM_rHp-43" value="word: string" style="text;strokeColor=none;fillColor=none;align=left;verticalAlign=top;spacingLeft=4;spacingRight=4;overflow=hidden;rotatable=0;points=[[0,0.5],[1,0.5]];portConstraint=eastwest;" parent="WEGL4rApuy6SPZoM_rHp-40" vertex="1"><mxGeometry y="60" width="160" height="26" as="geometry"/></mxCell><mxCell id="WEGL4rApuy6SPZoM_rHp-44" value="RankByReaction" style="swimlane;fontStyle=1;align=center;verticalAlign=top;childLayout=stackLayout;horizontal=1;startSize=26;horizontalStack=0;resizeParent=1;resizeParentMax=0;resizeLast=0;collapsible=1;marginBottom=0;strokeColor=#9673a6;fillColor=#867F8A;" parent="1" vertex="1"><mxGeometry x="622" y="585" width="215" height="138" as="geometry"/></mxCell><mxCell id="WEGL4rApuy6SPZoM_rHp-45" value="id: int(autoincrment)" style="text;strokeColor=none;fillColor=none;align=left;verticalAlign=top;spacingLeft=4;spacingRight=4;overflow=hidden;rotatable=0;points=[[0,0.5],[1,0.5]];portConstraint=eastwest;" parent="WEGL4rApuy6SPZoM_rHp-44" vertex="1"><mxGeometry y="26" width="215" height="26" as="geometry"/></mxCell><mxCell id="WEGL4rApuy6SPZoM_rHp-46" value="" style="line;strokeWidth=1;fillColor=none;align=left;verticalAlign=middle;spacingTop=-1;spacingLeft=3;spacingRight=3;rotatable=0;labelPosition=right;points=[];portConstraint=eastwest;" parent="WEGL4rApuy6SPZoM_rHp-44" vertex="1"><mxGeometry y="52" width="215" height="8" as="geometry"/></mxCell><mxCell id="WEGL4rApuy6SPZoM_rHp-47" value="postId: REF" style="text;strokeColor=none;fillColor=none;align=left;verticalAlign=top;spacingLeft=4;spacingRight=4;overflow=hidden;rotatable=0;points=[[0,0.5],[1,0.5]];portConstraint=eastwest;" parent="WEGL4rApuy6SPZoM_rHp-44" vertex="1"><mxGeometry y="60" width="215" height="26" as="geometry"/></mxCell><mxCell id="WEGL4rApuy6SPZoM_rHp-48" value="ranking: bigserial" style="text;strokeColor=none;fillColor=none;align=left;verticalAlign=top;spacingLeft=4;spacingRight=4;overflow=hidden;rotatable=0;points=[[0,0.5],[1,0.5]];portConstraint=eastwest;" parent="WEGL4rApuy6SPZoM_rHp-44" vertex="1"><mxGeometry y="86" width="215" height="26" as="geometry"/></mxCell><mxCell id="WEGL4rApuy6SPZoM_rHp-49" value="country: enum" style="text;strokeColor=none;fillColor=none;align=left;verticalAlign=top;spacingLeft=4;spacingRight=4;overflow=hidden;rotatable=0;points=[[0,0.5],[1,0.5]];portConstraint=eastwest;" parent="WEGL4rApuy6SPZoM_rHp-44" vertex="1"><mxGeometry y="112" width="215" height="26" as="geometry"/></mxCell><mxCell id="WEGL4rApuy6SPZoM_rHp-50" value="RankByLength" style="swimlane;fontStyle=1;align=center;verticalAlign=top;childLayout=stackLayout;horizontal=1;startSize=26;horizontalStack=0;resizeParent=1;resizeParentMax=0;resizeLast=0;collapsible=1;marginBottom=0;strokeColor=#9673a6;fillColor=#867F8A;" parent="1" vertex="1"><mxGeometry x="622" y="427" width="215" height="138" as="geometry"/></mxCell><mxCell id="WEGL4rApuy6SPZoM_rHp-51" value="id: int(autoincrment)" style="text;strokeColor=none;fillColor=none;align=left;verticalAlign=top;spacingLeft=4;spacingRight=4;overflow=hidden;rotatable=0;points=[[0,0.5],[1,0.5]];portConstraint=eastwest;" parent="WEGL4rApuy6SPZoM_rHp-50" vertex="1"><mxGeometry y="26" width="215" height="26" as="geometry"/></mxCell><mxCell id="WEGL4rApuy6SPZoM_rHp-52" value="" style="line;strokeWidth=1;fillColor=none;align=left;verticalAlign=middle;spacingTop=-1;spacingLeft=3;spacingRight=3;rotatable=0;labelPosition=right;points=[];portConstraint=eastwest;" parent="WEGL4rApuy6SPZoM_rHp-50" vertex="1"><mxGeometry y="52" width="215" height="8" as="geometry"/></mxCell><mxCell id="WEGL4rApuy6SPZoM_rHp-53" value="postId: REF" style="text;strokeColor=none;fillColor=none;align=left;verticalAlign=top;spacingLeft=4;spacingRight=4;overflow=hidden;rotatable=0;points=[[0,0.5],[1,0.5]];portConstraint=eastwest;" parent="WEGL4rApuy6SPZoM_rHp-50" vertex="1"><mxGeometry y="60" width="215" height="26" as="geometry"/></mxCell><mxCell id="WEGL4rApuy6SPZoM_rHp-54" value="ranking: bigserial" style="text;strokeColor=none;fillColor=none;align=left;verticalAlign=top;spacingLeft=4;spacingRight=4;overflow=hidden;rotatable=0;points=[[0,0.5],[1,0.5]];portConstraint=eastwest;" parent="WEGL4rApuy6SPZoM_rHp-50" vertex="1"><mxGeometry y="86" width="215" height="26" as="geometry"/></mxCell><mxCell id="WEGL4rApuy6SPZoM_rHp-55" value="country: enum" style="text;strokeColor=none;fillColor=none;align=left;verticalAlign=top;spacingLeft=4;spacingRight=4;overflow=hidden;rotatable=0;points=[[0,0.5],[1,0.5]];portConstraint=eastwest;" parent="WEGL4rApuy6SPZoM_rHp-50" vertex="1"><mxGeometry y="112" width="215" height="26" as="geometry"/></mxCell><mxCell id="WEGL4rApuy6SPZoM_rHp-56" style="edgeStyle=orthogonalEdgeStyle;rounded=0;orthogonalLoop=1;jettySize=auto;html=1;fontColor=#000000;" parent="1" source="WEGL4rApuy6SPZoM_rHp-30" edge="1"><mxGeometry relative="1" as="geometry"><mxPoint x="423" y="559" as="targetPoint"/><Array as="points"><mxPoint x="358" y="723"/><mxPoint x="358" y="584"/><mxPoint x="423" y="584"/></Array></mxGeometry></mxCell><mxCell id="WEGL4rApuy6SPZoM_rHp-57" style="edgeStyle=orthogonalEdgeStyle;rounded=0;orthogonalLoop=1;jettySize=auto;html=1;entryX=0.36;entryY=0.96;entryDx=0;entryDy=0;entryPerimeter=0;fontColor=#000000;exitX=0;exitY=0.5;exitDx=0;exitDy=0;" parent="1" source="WEGL4rApuy6SPZoM_rHp-47" target="WEGL4rApuy6SPZoM_rHp-23" edge="1"><mxGeometry relative="1" as="geometry"><mxPoint x="390" y="742" as="sourcePoint"/><Array as="points"><mxPoint x="493" y="658"/><mxPoint x="493" y="597"/><mxPoint x="471" y="597"/></Array></mxGeometry></mxCell><mxCell id="WEGL4rApuy6SPZoM_rHp-58" style="edgeStyle=orthogonalEdgeStyle;rounded=0;orthogonalLoop=1;jettySize=auto;html=1;entryX=1;entryY=0.5;entryDx=0;entryDy=0;fontColor=#000000;" parent="1" source="WEGL4rApuy6SPZoM_rHp-53" target="WEGL4rApuy6SPZoM_rHp-21" edge="1"><mxGeometry relative="1" as="geometry"/></mxCell></root></mxGraphModel></diagram></mxfile>